<?xml version="1.0" encoding="utf-8" standalone="no"?>
<!DOCTYPE svg PUBLIC "-//W3C//DTD SVG 1.1//EN"
  "http://www.w3.org/Graphics/SVG/1.1/DTD/svg11.dtd">
<!-- Created with matplotlib (https://matplotlib.org/) -->
<svg height="248.518125pt" version="1.1" viewBox="0 0 378.465625 248.518125" width="378.465625pt" xmlns="http://www.w3.org/2000/svg" xmlns:xlink="http://www.w3.org/1999/xlink">
 <metadata>
  <rdf:RDF xmlns:cc="http://creativecommons.org/ns#" xmlns:dc="http://purl.org/dc/elements/1.1/" xmlns:rdf="http://www.w3.org/1999/02/22-rdf-syntax-ns#">
   <cc:Work>
    <dc:type rdf:resource="http://purl.org/dc/dcmitype/StillImage"/>
    <dc:date>2021-02-20T19:09:46.197540</dc:date>
    <dc:format>image/svg+xml</dc:format>
    <dc:creator>
     <cc:Agent>
      <dc:title>Matplotlib v3.3.3, https://matplotlib.org/</dc:title>
     </cc:Agent>
    </dc:creator>
   </cc:Work>
  </rdf:RDF>
 </metadata>
 <defs>
  <style type="text/css">*{stroke-linecap:butt;stroke-linejoin:round;}</style>
 </defs>
 <g id="figure_1">
  <g id="patch_1">
   <path d="M 0 248.518125 
L 378.465625 248.518125 
L 378.465625 0 
L 0 0 
z
" style="fill:none;"/>
  </g>
  <g id="axes_1">
   <g id="patch_2">
    <path d="M 36.465625 224.64 
L 371.265625 224.64 
L 371.265625 7.2 
L 36.465625 7.2 
z
" style="fill:#ffffff;"/>
   </g>
   <g id="patch_3">
    <path clip-path="url(#pc12f99a244)" d="M 247.626062 94.861794 
L 248.061489 96.0607 
L 248.496916 97.259367 
L 248.932344 98.45756 
L 249.367771 99.655045 
L 249.803198 100.851591 
L 250.238625 102.04697 
L 250.674053 103.240956 
L 251.10948 104.433326 
L 251.544907 105.62386 
L 251.980334 106.812342 
L 252.415762 107.998558 
L 252.851189 109.182296 
L 253.286616 110.363348 
L 253.722043 111.54151 
L 254.15747 112.71658 
L 254.592898 113.88836 
L 255.028325 115.056653 
L 255.463752 116.221269 
L 255.899179 117.382019 
L 256.334607 118.538718 
L 256.770034 119.691183 
L 257.205461 120.839236 
L 257.640888 121.982703 
L 258.076316 123.121412 
L 258.511743 124.255194 
L 258.94717 125.383887 
L 259.382597 126.507328 
L 259.818025 127.62536 
L 260.253452 128.737831 
L 260.688879 129.844589 
L 261.124306 130.945489 
L 261.559733 132.040387 
L 261.995161 133.129145 
L 262.430588 134.211627 
L 262.866015 135.2877 
L 263.301442 136.357238 
L 263.73687 137.420116 
L 264.172297 138.476212 
L 264.607724 139.525409 
L 265.043151 140.567595 
L 265.478579 141.602659 
L 265.914006 142.630495 
L 266.349433 143.651 
L 266.78486 144.664076 
L 267.220288 145.669627 
L 267.655715 146.667561 
L 268.091142 147.657791 
L 268.526569 148.640232 
L 268.961996 149.614802 
L 269.397424 150.581425 
L 269.832851 151.540026 
L 270.268278 152.490535 
L 270.703705 153.432886 
L 271.139133 154.367013 
L 271.57456 155.292858 
L 272.009987 156.210364 
L 272.445414 157.119476 
L 272.880842 158.020146 
L 273.316269 158.912326 
L 273.751696 159.795972 
L 274.187123 160.671045 
L 274.62255 161.537508 
L 275.057978 162.395325 
L 275.493405 163.244468 
L 275.928832 164.084907 
L 276.364259 164.916618 
L 276.799687 165.73958 
L 277.235114 166.553773 
L 277.670541 167.359182 
L 278.105968 168.155794 
L 278.541396 168.943598 
L 278.976823 169.722588 
L 279.41225 170.492759 
L 279.847677 171.254109 
L 280.283105 172.006638 
L 280.718532 172.750351 
L 281.153959 173.485252 
L 281.589386 174.211351 
L 282.024813 174.928659 
L 282.460241 175.637188 
L 282.895668 176.336955 
L 283.331095 177.027977 
L 283.766522 177.710275 
L 284.20195 178.383872 
L 284.637377 179.048792 
L 285.072804 179.705061 
L 285.508231 180.35271 
L 285.943659 180.991769 
L 286.379086 181.62227 
L 286.814513 182.244249 
L 287.24994 182.857743 
L 287.685367 183.46279 
L 288.120795 184.05943 
L 288.556222 184.647706 
L 288.991649 185.227661 
L 289.427076 185.79934 
L 289.862504 186.362792 
L 290.297931 186.918064 
L 290.733358 187.465206 
L 291.168785 188.004269 
L 291.604213 188.535307 
L 292.03964 189.058374 
L 292.475067 189.573525 
L 292.910494 190.080816 
L 293.345922 190.580306 
L 293.781349 191.072054 
L 294.216776 191.55612 
L 294.652203 192.032565 
L 295.08763 192.501451 
L 295.523058 192.962842 
L 295.958485 193.416801 
L 296.393912 193.863393 
L 296.829339 194.302685 
L 297.264767 194.734742 
L 297.700194 195.159633 
L 298.135621 195.577424 
L 298.571048 195.988186 
L 299.006476 196.391986 
L 299.441903 196.788896 
L 299.87733 197.178985 
L 300.312757 197.562324 
L 300.748185 197.938985 
L 301.183612 198.30904 
L 301.619039 198.67256 
L 302.054466 199.029619 
L 302.489893 199.380288 
L 302.925321 199.724642 
L 303.360748 200.062753 
L 303.796175 200.394695 
L 304.231602 200.720542 
L 304.66703 201.040367 
L 305.102457 201.354245 
L 305.537884 201.66225 
L 305.973311 201.964456 
L 306.408739 202.260936 
L 306.844166 202.551766 
L 307.279593 202.837018 
L 307.71502 203.116767 
L 308.150447 203.391087 
L 308.585875 203.660052 
L 309.021302 203.923735 
L 309.456729 204.182209 
L 309.892156 204.435548 
L 310.327584 204.683825 
L 310.763011 204.927112 
L 311.198438 205.165482 
L 311.633865 205.399008 
L 312.069293 205.62776 
L 312.50472 205.85181 
L 312.940147 206.07123 
L 313.375574 206.28609 
L 313.811002 206.496461 
L 314.246429 206.702413 
L 314.681856 206.904014 
L 315.117283 207.101335 
L 315.55271 207.294444 
L 315.988138 207.483408 
L 316.423565 207.668296 
L 316.858992 207.849175 
L 317.294419 208.02611 
L 317.729847 208.19917 
L 318.165274 208.368418 
L 318.600701 208.53392 
L 319.036128 208.69574 
L 319.471556 208.853942 
L 319.906983 209.008589 
L 320.34241 209.159744 
L 320.777837 209.307469 
L 321.213264 209.451825 
L 321.648692 209.592873 
L 322.084119 209.730674 
L 322.519546 209.865285 
L 322.954973 209.996768 
L 323.390401 210.125179 
L 323.825828 210.250576 
L 324.261255 210.373016 
L 324.696682 210.492555 
L 325.13211 210.609249 
L 325.567537 210.723153 
L 326.002964 210.83432 
L 326.438391 210.942805 
L 326.873819 211.04866 
L 327.309246 211.151937 
L 327.744673 211.252687 
L 328.1801 211.350962 
L 328.615527 211.446812 
L 329.050955 211.540285 
L 329.486382 211.631431 
L 329.921809 211.720297 
L 330.357236 211.806931 
L 330.792664 211.89138 
L 331.228091 211.973688 
L 331.663518 212.053903 
L 332.098945 212.132067 
L 332.534373 212.208226 
L 332.9698 212.282422 
L 333.405227 212.354697 
L 333.840654 212.425095 
L 334.276081 212.493655 
L 334.711509 212.560418 
L 335.146936 212.625425 
L 335.582363 212.688713 
L 336.01779 212.750323 
L 336.453218 212.810292 
L 336.888645 212.868657 
L 337.324072 212.925454 
L 337.759499 212.98072 
L 338.194927 213.03449 
L 338.630354 213.086799 
L 339.065781 213.137681 
L 339.501208 213.187169 
L 339.936636 213.235296 
L 340.372063 213.282094 
L 340.80749 213.327595 
L 341.242917 213.371831 
L 341.678344 213.414831 
L 342.113772 213.456626 
L 342.549199 213.497244 
L 342.984626 213.536715 
L 343.420053 213.575067 
L 343.855481 213.612327 
L 344.290908 213.648523 
L 344.726335 213.683681 
L 345.161762 213.717827 
L 345.59719 213.750986 
L 346.032617 213.783185 
L 346.468044 213.814446 
L 346.903471 213.844794 
L 347.338899 213.874253 
L 347.774326 213.902844 
L 348.209753 213.930592 
L 348.64518 213.957518 
L 349.080607 213.983643 
L 349.516035 214.008988 
L 349.951462 214.033574 
L 350.386889 214.057421 
L 350.822316 214.08055 
L 351.257744 214.102978 
L 351.693171 214.124725 
L 352.128598 214.145809 
L 352.564025 214.166248 
L 352.999453 214.18606 
L 353.43488 214.205263 
L 353.870307 214.223872 
L 354.305734 214.241904 
L 354.741161 214.259375 
L 355.176589 214.2763 
L 355.612016 214.292696 
L 247.626062 214.756364 
z
" style="fill:#1f77b4;"/>
   </g>
   <g id="matplotlib.axis_1">
    <g id="xtick_1">
     <g id="line2d_1">
      <defs>
       <path d="M 0 0 
L 0 3.5 
" id="mcbbd9d8434" style="stroke:#000000;stroke-width:0.8;"/>
      </defs>
      <g>
       <use style="stroke:#000000;stroke-width:0.8;" x="73.455169" xlink:href="#mcbbd9d8434" y="224.64"/>
      </g>
     </g>
     <g id="text_1">
      <!-- −3 -->
      <g transform="translate(66.084075 239.238437)scale(0.1 -0.1)">
       <defs>
        <path d="M 10.59375 35.5 
L 73.1875 35.5 
L 73.1875 27.203125 
L 10.59375 27.203125 
z
" id="DejaVuSans-8722"/>
        <path d="M 40.578125 39.3125 
Q 47.65625 37.796875 51.625 33 
Q 55.609375 28.21875 55.609375 21.1875 
Q 55.609375 10.40625 48.1875 4.484375 
Q 40.765625 -1.421875 27.09375 -1.421875 
Q 22.515625 -1.421875 17.65625 -0.515625 
Q 12.796875 0.390625 7.625 2.203125 
L 7.625 11.71875 
Q 11.71875 9.328125 16.59375 8.109375 
Q 21.484375 6.890625 26.8125 6.890625 
Q 36.078125 6.890625 40.9375 10.546875 
Q 45.796875 14.203125 45.796875 21.1875 
Q 45.796875 27.640625 41.28125 31.265625 
Q 36.765625 34.90625 28.71875 34.90625 
L 20.21875 34.90625 
L 20.21875 43.015625 
L 29.109375 43.015625 
Q 36.375 43.015625 40.234375 45.921875 
Q 44.09375 48.828125 44.09375 54.296875 
Q 44.09375 59.90625 40.109375 62.90625 
Q 36.140625 65.921875 28.71875 65.921875 
Q 24.65625 65.921875 20.015625 65.03125 
Q 15.375 64.15625 9.8125 62.3125 
L 9.8125 71.09375 
Q 15.4375 72.65625 20.34375 73.4375 
Q 25.25 74.21875 29.59375 74.21875 
Q 40.828125 74.21875 47.359375 69.109375 
Q 53.90625 64.015625 53.90625 55.328125 
Q 53.90625 49.265625 50.4375 45.09375 
Q 46.96875 40.921875 40.578125 39.3125 
z
" id="DejaVuSans-51"/>
       </defs>
       <use xlink:href="#DejaVuSans-8722"/>
       <use x="83.789062" xlink:href="#DejaVuSans-51"/>
      </g>
     </g>
    </g>
    <g id="xtick_2">
     <g id="line2d_2">
      <g>
       <use style="stroke:#000000;stroke-width:0.8;" x="116.997892" xlink:href="#mcbbd9d8434" y="224.64"/>
      </g>
     </g>
     <g id="text_2">
      <!-- −2 -->
      <g transform="translate(109.626798 239.238437)scale(0.1 -0.1)">
       <defs>
        <path d="M 19.1875 8.296875 
L 53.609375 8.296875 
L 53.609375 0 
L 7.328125 0 
L 7.328125 8.296875 
Q 12.9375 14.109375 22.625 23.890625 
Q 32.328125 33.6875 34.8125 36.53125 
Q 39.546875 41.84375 41.421875 45.53125 
Q 43.3125 49.21875 43.3125 52.78125 
Q 43.3125 58.59375 39.234375 62.25 
Q 35.15625 65.921875 28.609375 65.921875 
Q 23.96875 65.921875 18.8125 64.3125 
Q 13.671875 62.703125 7.8125 59.421875 
L 7.8125 69.390625 
Q 13.765625 71.78125 18.9375 73 
Q 24.125 74.21875 28.421875 74.21875 
Q 39.75 74.21875 46.484375 68.546875 
Q 53.21875 62.890625 53.21875 53.421875 
Q 53.21875 48.921875 51.53125 44.890625 
Q 49.859375 40.875 45.40625 35.40625 
Q 44.1875 33.984375 37.640625 27.21875 
Q 31.109375 20.453125 19.1875 8.296875 
z
" id="DejaVuSans-50"/>
       </defs>
       <use xlink:href="#DejaVuSans-8722"/>
       <use x="83.789062" xlink:href="#DejaVuSans-50"/>
      </g>
     </g>
    </g>
    <g id="xtick_3">
     <g id="line2d_3">
      <g>
       <use style="stroke:#000000;stroke-width:0.8;" x="160.540615" xlink:href="#mcbbd9d8434" y="224.64"/>
      </g>
     </g>
     <g id="text_3">
      <!-- −1 -->
      <g transform="translate(153.169521 239.238437)scale(0.1 -0.1)">
       <defs>
        <path d="M 12.40625 8.296875 
L 28.515625 8.296875 
L 28.515625 63.921875 
L 10.984375 60.40625 
L 10.984375 69.390625 
L 28.421875 72.90625 
L 38.28125 72.90625 
L 38.28125 8.296875 
L 54.390625 8.296875 
L 54.390625 0 
L 12.40625 0 
z
" id="DejaVuSans-49"/>
       </defs>
       <use xlink:href="#DejaVuSans-8722"/>
       <use x="83.789062" xlink:href="#DejaVuSans-49"/>
      </g>
     </g>
    </g>
    <g id="xtick_4">
     <g id="line2d_4">
      <g>
       <use style="stroke:#000000;stroke-width:0.8;" x="204.083339" xlink:href="#mcbbd9d8434" y="224.64"/>
      </g>
     </g>
     <g id="text_4">
      <!-- 0 -->
      <g transform="translate(200.902089 239.238437)scale(0.1 -0.1)">
       <defs>
        <path d="M 31.78125 66.40625 
Q 24.171875 66.40625 20.328125 58.90625 
Q 16.5 51.421875 16.5 36.375 
Q 16.5 21.390625 20.328125 13.890625 
Q 24.171875 6.390625 31.78125 6.390625 
Q 39.453125 6.390625 43.28125 13.890625 
Q 47.125 21.390625 47.125 36.375 
Q 47.125 51.421875 43.28125 58.90625 
Q 39.453125 66.40625 31.78125 66.40625 
z
M 31.78125 74.21875 
Q 44.046875 74.21875 50.515625 64.515625 
Q 56.984375 54.828125 56.984375 36.375 
Q 56.984375 17.96875 50.515625 8.265625 
Q 44.046875 -1.421875 31.78125 -1.421875 
Q 19.53125 -1.421875 13.0625 8.265625 
Q 6.59375 17.96875 6.59375 36.375 
Q 6.59375 54.828125 13.0625 64.515625 
Q 19.53125 74.21875 31.78125 74.21875 
z
" id="DejaVuSans-48"/>
       </defs>
       <use xlink:href="#DejaVuSans-48"/>
      </g>
     </g>
    </g>
    <g id="xtick_5">
     <g id="line2d_5">
      <g>
       <use style="stroke:#000000;stroke-width:0.8;" x="247.626062" xlink:href="#mcbbd9d8434" y="224.64"/>
      </g>
     </g>
     <g id="text_5">
      <!-- 1 -->
      <g transform="translate(244.444812 239.238437)scale(0.1 -0.1)">
       <use xlink:href="#DejaVuSans-49"/>
      </g>
     </g>
    </g>
    <g id="xtick_6">
     <g id="line2d_6">
      <g>
       <use style="stroke:#000000;stroke-width:0.8;" x="291.168785" xlink:href="#mcbbd9d8434" y="224.64"/>
      </g>
     </g>
     <g id="text_6">
      <!-- 2 -->
      <g transform="translate(287.987535 239.238437)scale(0.1 -0.1)">
       <use xlink:href="#DejaVuSans-50"/>
      </g>
     </g>
    </g>
    <g id="xtick_7">
     <g id="line2d_7">
      <g>
       <use style="stroke:#000000;stroke-width:0.8;" x="334.711509" xlink:href="#mcbbd9d8434" y="224.64"/>
      </g>
     </g>
     <g id="text_7">
      <!-- 3 -->
      <g transform="translate(331.530259 239.238437)scale(0.1 -0.1)">
       <use xlink:href="#DejaVuSans-51"/>
      </g>
     </g>
    </g>
   </g>
   <g id="matplotlib.axis_2">
    <g id="ytick_1">
     <g id="line2d_8">
      <defs>
       <path d="M 0 0 
L -3.5 0 
" id="m999487204d" style="stroke:#000000;stroke-width:0.8;"/>
      </defs>
      <g>
       <use style="stroke:#000000;stroke-width:0.8;" x="36.465625" xlink:href="#m999487204d" y="214.756364"/>
      </g>
     </g>
     <g id="text_8">
      <!-- 0.00 -->
      <g transform="translate(7.2 218.555582)scale(0.1 -0.1)">
       <defs>
        <path d="M 10.6875 12.40625 
L 21 12.40625 
L 21 0 
L 10.6875 0 
z
" id="DejaVuSans-46"/>
       </defs>
       <use xlink:href="#DejaVuSans-48"/>
       <use x="63.623047" xlink:href="#DejaVuSans-46"/>
       <use x="95.410156" xlink:href="#DejaVuSans-48"/>
       <use x="159.033203" xlink:href="#DejaVuSans-48"/>
      </g>
     </g>
    </g>
    <g id="ytick_2">
     <g id="line2d_9">
      <g>
       <use style="stroke:#000000;stroke-width:0.8;" x="36.465625" xlink:href="#m999487204d" y="189.981761"/>
      </g>
     </g>
     <g id="text_9">
      <!-- 0.05 -->
      <g transform="translate(7.2 193.78098)scale(0.1 -0.1)">
       <defs>
        <path d="M 10.796875 72.90625 
L 49.515625 72.90625 
L 49.515625 64.59375 
L 19.828125 64.59375 
L 19.828125 46.734375 
Q 21.96875 47.46875 24.109375 47.828125 
Q 26.265625 48.1875 28.421875 48.1875 
Q 40.625 48.1875 47.75 41.5 
Q 54.890625 34.8125 54.890625 23.390625 
Q 54.890625 11.625 47.5625 5.09375 
Q 40.234375 -1.421875 26.90625 -1.421875 
Q 22.3125 -1.421875 17.546875 -0.640625 
Q 12.796875 0.140625 7.71875 1.703125 
L 7.71875 11.625 
Q 12.109375 9.234375 16.796875 8.0625 
Q 21.484375 6.890625 26.703125 6.890625 
Q 35.15625 6.890625 40.078125 11.328125 
Q 45.015625 15.765625 45.015625 23.390625 
Q 45.015625 31 40.078125 35.4375 
Q 35.15625 39.890625 26.703125 39.890625 
Q 22.75 39.890625 18.8125 39.015625 
Q 14.890625 38.140625 10.796875 36.28125 
z
" id="DejaVuSans-53"/>
       </defs>
       <use xlink:href="#DejaVuSans-48"/>
       <use x="63.623047" xlink:href="#DejaVuSans-46"/>
       <use x="95.410156" xlink:href="#DejaVuSans-48"/>
       <use x="159.033203" xlink:href="#DejaVuSans-53"/>
      </g>
     </g>
    </g>
    <g id="ytick_3">
     <g id="line2d_10">
      <g>
       <use style="stroke:#000000;stroke-width:0.8;" x="36.465625" xlink:href="#m999487204d" y="165.207159"/>
      </g>
     </g>
     <g id="text_10">
      <!-- 0.10 -->
      <g transform="translate(7.2 169.006378)scale(0.1 -0.1)">
       <use xlink:href="#DejaVuSans-48"/>
       <use x="63.623047" xlink:href="#DejaVuSans-46"/>
       <use x="95.410156" xlink:href="#DejaVuSans-49"/>
       <use x="159.033203" xlink:href="#DejaVuSans-48"/>
      </g>
     </g>
    </g>
    <g id="ytick_4">
     <g id="line2d_11">
      <g>
       <use style="stroke:#000000;stroke-width:0.8;" x="36.465625" xlink:href="#m999487204d" y="140.432557"/>
      </g>
     </g>
     <g id="text_11">
      <!-- 0.15 -->
      <g transform="translate(7.2 144.231775)scale(0.1 -0.1)">
       <use xlink:href="#DejaVuSans-48"/>
       <use x="63.623047" xlink:href="#DejaVuSans-46"/>
       <use x="95.410156" xlink:href="#DejaVuSans-49"/>
       <use x="159.033203" xlink:href="#DejaVuSans-53"/>
      </g>
     </g>
    </g>
    <g id="ytick_5">
     <g id="line2d_12">
      <g>
       <use style="stroke:#000000;stroke-width:0.8;" x="36.465625" xlink:href="#m999487204d" y="115.657954"/>
      </g>
     </g>
     <g id="text_12">
      <!-- 0.20 -->
      <g transform="translate(7.2 119.457173)scale(0.1 -0.1)">
       <use xlink:href="#DejaVuSans-48"/>
       <use x="63.623047" xlink:href="#DejaVuSans-46"/>
       <use x="95.410156" xlink:href="#DejaVuSans-50"/>
       <use x="159.033203" xlink:href="#DejaVuSans-48"/>
      </g>
     </g>
    </g>
    <g id="ytick_6">
     <g id="line2d_13">
      <g>
       <use style="stroke:#000000;stroke-width:0.8;" x="36.465625" xlink:href="#m999487204d" y="90.883352"/>
      </g>
     </g>
     <g id="text_13">
      <!-- 0.25 -->
      <g transform="translate(7.2 94.682571)scale(0.1 -0.1)">
       <use xlink:href="#DejaVuSans-48"/>
       <use x="63.623047" xlink:href="#DejaVuSans-46"/>
       <use x="95.410156" xlink:href="#DejaVuSans-50"/>
       <use x="159.033203" xlink:href="#DejaVuSans-53"/>
      </g>
     </g>
    </g>
    <g id="ytick_7">
     <g id="line2d_14">
      <g>
       <use style="stroke:#000000;stroke-width:0.8;" x="36.465625" xlink:href="#m999487204d" y="66.108749"/>
      </g>
     </g>
     <g id="text_14">
      <!-- 0.30 -->
      <g transform="translate(7.2 69.907968)scale(0.1 -0.1)">
       <use xlink:href="#DejaVuSans-48"/>
       <use x="63.623047" xlink:href="#DejaVuSans-46"/>
       <use x="95.410156" xlink:href="#DejaVuSans-51"/>
       <use x="159.033203" xlink:href="#DejaVuSans-48"/>
      </g>
     </g>
    </g>
    <g id="ytick_8">
     <g id="line2d_15">
      <g>
       <use style="stroke:#000000;stroke-width:0.8;" x="36.465625" xlink:href="#m999487204d" y="41.334147"/>
      </g>
     </g>
     <g id="text_15">
      <!-- 0.35 -->
      <g transform="translate(7.2 45.133366)scale(0.1 -0.1)">
       <use xlink:href="#DejaVuSans-48"/>
       <use x="63.623047" xlink:href="#DejaVuSans-46"/>
       <use x="95.410156" xlink:href="#DejaVuSans-51"/>
       <use x="159.033203" xlink:href="#DejaVuSans-53"/>
      </g>
     </g>
    </g>
    <g id="ytick_9">
     <g id="line2d_16">
      <g>
       <use style="stroke:#000000;stroke-width:0.8;" x="36.465625" xlink:href="#m999487204d" y="16.559545"/>
      </g>
     </g>
     <g id="text_16">
      <!-- 0.40 -->
      <g transform="translate(7.2 20.358763)scale(0.1 -0.1)">
       <defs>
        <path d="M 37.796875 64.3125 
L 12.890625 25.390625 
L 37.796875 25.390625 
z
M 35.203125 72.90625 
L 47.609375 72.90625 
L 47.609375 25.390625 
L 58.015625 25.390625 
L 58.015625 17.1875 
L 47.609375 17.1875 
L 47.609375 0 
L 37.796875 0 
L 37.796875 17.1875 
L 4.890625 17.1875 
L 4.890625 26.703125 
z
" id="DejaVuSans-52"/>
       </defs>
       <use xlink:href="#DejaVuSans-48"/>
       <use x="63.623047" xlink:href="#DejaVuSans-46"/>
       <use x="95.410156" xlink:href="#DejaVuSans-52"/>
       <use x="159.033203" xlink:href="#DejaVuSans-48"/>
      </g>
     </g>
    </g>
   </g>
   <g id="line2d_17">
    <path clip-path="url(#pc12f99a244)" d="M 51.683807 214.323956 
L 59.956924 213.930592 
L 66.488333 213.414831 
L 72.148887 212.750323 
L 76.938586 211.973688 
L 81.292859 211.04866 
L 85.211704 209.996768 
L 88.695122 208.853942 
L 92.17854 207.483408 
L 95.661957 205.85181 
L 98.709948 204.182209 
L 101.757939 202.260936 
L 104.805929 200.062753 
L 107.85392 197.562324 
L 110.901911 194.734742 
L 113.949901 191.55612 
L 116.997892 188.004269 
L 120.045883 184.05943 
L 123.093873 179.705061 
L 126.141864 174.928659 
L 129.189854 169.722588 
L 132.237845 164.084907 
L 135.285836 158.020146 
L 138.769254 150.581425 
L 142.252671 142.630495 
L 146.171517 133.129145 
L 150.525789 121.982703 
L 156.186343 106.812342 
L 170.990869 66.667463 
L 174.909714 56.824646 
L 178.393132 48.660889 
L 181.441122 42.081095 
L 184.053686 36.929079 
L 186.666249 32.281438 
L 188.843385 28.827756 
L 191.020522 25.781734 
L 193.197658 23.165387 
L 194.939367 21.394617 
L 196.681076 19.919469 
L 198.422785 18.746934 
L 200.164494 17.882592 
L 201.906202 17.330573 
L 203.212484 17.123167 
L 204.518766 17.09352 
L 205.825048 17.241711 
L 207.131329 17.567342 
L 208.873038 18.275946 
L 210.614747 19.294992 
L 212.356456 20.619621 
L 214.098165 22.243539 
L 215.839874 24.159074 
L 218.01701 26.949752 
L 220.194146 30.161634 
L 222.371282 33.771614 
L 224.983846 38.592823 
L 227.596409 43.901786 
L 230.6444 50.642124 
L 234.127818 58.957978 
L 238.046663 68.930562 
L 243.27179 82.913238 
L 258.94717 125.383887 
L 263.301442 136.357238 
L 267.220288 145.669627 
L 270.703705 153.432886 
L 274.187123 160.671045 
L 277.670541 167.359182 
L 280.718532 172.750351 
L 283.766522 177.710275 
L 286.814513 182.244249 
L 289.862504 186.362792 
L 292.910494 190.080816 
L 295.958485 193.416801 
L 299.006476 196.391986 
L 302.054466 199.029619 
L 305.102457 201.354245 
L 308.150447 203.391087 
L 311.198438 205.165482 
L 314.246429 206.702413 
L 317.729847 208.19917 
L 321.213264 209.451825 
L 325.13211 210.609249 
L 329.050955 211.540285 
L 333.405227 212.354697 
L 338.194927 213.03449 
L 343.855481 213.612327 
L 350.822316 214.08055 
L 356.047443 214.308576 
L 356.047443 214.308576 
" style="fill:none;stroke:#1f77b4;stroke-linecap:square;stroke-width:1.5;"/>
   </g>
   <g id="patch_4">
    <path d="M 36.465625 224.64 
L 36.465625 7.2 
" style="fill:none;stroke:#000000;stroke-linecap:square;stroke-linejoin:miter;stroke-width:0.8;"/>
   </g>
   <g id="patch_5">
    <path d="M 371.265625 224.64 
L 371.265625 7.2 
" style="fill:none;stroke:#000000;stroke-linecap:square;stroke-linejoin:miter;stroke-width:0.8;"/>
   </g>
   <g id="patch_6">
    <path d="M 36.465625 224.64 
L 371.265625 224.64 
" style="fill:none;stroke:#000000;stroke-linecap:square;stroke-linejoin:miter;stroke-width:0.8;"/>
   </g>
   <g id="patch_7">
    <path d="M 36.465625 7.2 
L 371.265625 7.2 
" style="fill:none;stroke:#000000;stroke-linecap:square;stroke-linejoin:miter;stroke-width:0.8;"/>
   </g>
   <g id="patch_8">
    <path d="M 296.368792 96.071816 
Q 284.645061 137.289154 272.92133 178.506492 
L 277.490107 179.806021 
Q 273.443765 184.893891 269.397424 189.981761 
Q 268.634526 183.525966 267.871629 177.070171 
L 272.440406 178.3697 
Q 284.164137 137.152361 295.887868 95.935023 
L 296.368792 96.071816 
z
" style="stroke:#000000;stroke-linecap:round;"/>
   </g>
   <g id="text_17">
    <!-- Prob of a value &gt; 1.0 = 0.159 -->
    <g transform="translate(73.455169 90.883352)scale(0.15 -0.15)">
     <defs>
      <path d="M 19.671875 64.796875 
L 19.671875 37.40625 
L 32.078125 37.40625 
Q 38.96875 37.40625 42.71875 40.96875 
Q 46.484375 44.53125 46.484375 51.125 
Q 46.484375 57.671875 42.71875 61.234375 
Q 38.96875 64.796875 32.078125 64.796875 
z
M 9.8125 72.90625 
L 32.078125 72.90625 
Q 44.34375 72.90625 50.609375 67.359375 
Q 56.890625 61.8125 56.890625 51.125 
Q 56.890625 40.328125 50.609375 34.8125 
Q 44.34375 29.296875 32.078125 29.296875 
L 19.671875 29.296875 
L 19.671875 0 
L 9.8125 0 
z
" id="DejaVuSans-80"/>
      <path d="M 41.109375 46.296875 
Q 39.59375 47.171875 37.8125 47.578125 
Q 36.03125 48 33.890625 48 
Q 26.265625 48 22.1875 43.046875 
Q 18.109375 38.09375 18.109375 28.8125 
L 18.109375 0 
L 9.078125 0 
L 9.078125 54.6875 
L 18.109375 54.6875 
L 18.109375 46.1875 
Q 20.953125 51.171875 25.484375 53.578125 
Q 30.03125 56 36.53125 56 
Q 37.453125 56 38.578125 55.875 
Q 39.703125 55.765625 41.0625 55.515625 
z
" id="DejaVuSans-114"/>
      <path d="M 30.609375 48.390625 
Q 23.390625 48.390625 19.1875 42.75 
Q 14.984375 37.109375 14.984375 27.296875 
Q 14.984375 17.484375 19.15625 11.84375 
Q 23.34375 6.203125 30.609375 6.203125 
Q 37.796875 6.203125 41.984375 11.859375 
Q 46.1875 17.53125 46.1875 27.296875 
Q 46.1875 37.015625 41.984375 42.703125 
Q 37.796875 48.390625 30.609375 48.390625 
z
M 30.609375 56 
Q 42.328125 56 49.015625 48.375 
Q 55.71875 40.765625 55.71875 27.296875 
Q 55.71875 13.875 49.015625 6.21875 
Q 42.328125 -1.421875 30.609375 -1.421875 
Q 18.84375 -1.421875 12.171875 6.21875 
Q 5.515625 13.875 5.515625 27.296875 
Q 5.515625 40.765625 12.171875 48.375 
Q 18.84375 56 30.609375 56 
z
" id="DejaVuSans-111"/>
      <path d="M 48.6875 27.296875 
Q 48.6875 37.203125 44.609375 42.84375 
Q 40.53125 48.484375 33.40625 48.484375 
Q 26.265625 48.484375 22.1875 42.84375 
Q 18.109375 37.203125 18.109375 27.296875 
Q 18.109375 17.390625 22.1875 11.75 
Q 26.265625 6.109375 33.40625 6.109375 
Q 40.53125 6.109375 44.609375 11.75 
Q 48.6875 17.390625 48.6875 27.296875 
z
M 18.109375 46.390625 
Q 20.953125 51.265625 25.265625 53.625 
Q 29.59375 56 35.59375 56 
Q 45.5625 56 51.78125 48.09375 
Q 58.015625 40.1875 58.015625 27.296875 
Q 58.015625 14.40625 51.78125 6.484375 
Q 45.5625 -1.421875 35.59375 -1.421875 
Q 29.59375 -1.421875 25.265625 0.953125 
Q 20.953125 3.328125 18.109375 8.203125 
L 18.109375 0 
L 9.078125 0 
L 9.078125 75.984375 
L 18.109375 75.984375 
z
" id="DejaVuSans-98"/>
      <path id="DejaVuSans-32"/>
      <path d="M 37.109375 75.984375 
L 37.109375 68.5 
L 28.515625 68.5 
Q 23.6875 68.5 21.796875 66.546875 
Q 19.921875 64.59375 19.921875 59.515625 
L 19.921875 54.6875 
L 34.71875 54.6875 
L 34.71875 47.703125 
L 19.921875 47.703125 
L 19.921875 0 
L 10.890625 0 
L 10.890625 47.703125 
L 2.296875 47.703125 
L 2.296875 54.6875 
L 10.890625 54.6875 
L 10.890625 58.5 
Q 10.890625 67.625 15.140625 71.796875 
Q 19.390625 75.984375 28.609375 75.984375 
z
" id="DejaVuSans-102"/>
      <path d="M 34.28125 27.484375 
Q 23.390625 27.484375 19.1875 25 
Q 14.984375 22.515625 14.984375 16.5 
Q 14.984375 11.71875 18.140625 8.90625 
Q 21.296875 6.109375 26.703125 6.109375 
Q 34.1875 6.109375 38.703125 11.40625 
Q 43.21875 16.703125 43.21875 25.484375 
L 43.21875 27.484375 
z
M 52.203125 31.203125 
L 52.203125 0 
L 43.21875 0 
L 43.21875 8.296875 
Q 40.140625 3.328125 35.546875 0.953125 
Q 30.953125 -1.421875 24.3125 -1.421875 
Q 15.921875 -1.421875 10.953125 3.296875 
Q 6 8.015625 6 15.921875 
Q 6 25.140625 12.171875 29.828125 
Q 18.359375 34.515625 30.609375 34.515625 
L 43.21875 34.515625 
L 43.21875 35.40625 
Q 43.21875 41.609375 39.140625 45 
Q 35.0625 48.390625 27.6875 48.390625 
Q 23 48.390625 18.546875 47.265625 
Q 14.109375 46.140625 10.015625 43.890625 
L 10.015625 52.203125 
Q 14.9375 54.109375 19.578125 55.046875 
Q 24.21875 56 28.609375 56 
Q 40.484375 56 46.34375 49.84375 
Q 52.203125 43.703125 52.203125 31.203125 
z
" id="DejaVuSans-97"/>
      <path d="M 2.984375 54.6875 
L 12.5 54.6875 
L 29.59375 8.796875 
L 46.6875 54.6875 
L 56.203125 54.6875 
L 35.6875 0 
L 23.484375 0 
z
" id="DejaVuSans-118"/>
      <path d="M 9.421875 75.984375 
L 18.40625 75.984375 
L 18.40625 0 
L 9.421875 0 
z
" id="DejaVuSans-108"/>
      <path d="M 8.5 21.578125 
L 8.5 54.6875 
L 17.484375 54.6875 
L 17.484375 21.921875 
Q 17.484375 14.15625 20.5 10.265625 
Q 23.53125 6.390625 29.59375 6.390625 
Q 36.859375 6.390625 41.078125 11.03125 
Q 45.3125 15.671875 45.3125 23.6875 
L 45.3125 54.6875 
L 54.296875 54.6875 
L 54.296875 0 
L 45.3125 0 
L 45.3125 8.40625 
Q 42.046875 3.421875 37.71875 1 
Q 33.40625 -1.421875 27.6875 -1.421875 
Q 18.265625 -1.421875 13.375 4.4375 
Q 8.5 10.296875 8.5 21.578125 
z
M 31.109375 56 
z
" id="DejaVuSans-117"/>
      <path d="M 56.203125 29.59375 
L 56.203125 25.203125 
L 14.890625 25.203125 
Q 15.484375 15.921875 20.484375 11.0625 
Q 25.484375 6.203125 34.421875 6.203125 
Q 39.59375 6.203125 44.453125 7.46875 
Q 49.3125 8.734375 54.109375 11.28125 
L 54.109375 2.78125 
Q 49.265625 0.734375 44.1875 -0.34375 
Q 39.109375 -1.421875 33.890625 -1.421875 
Q 20.796875 -1.421875 13.15625 6.1875 
Q 5.515625 13.8125 5.515625 26.8125 
Q 5.515625 40.234375 12.765625 48.109375 
Q 20.015625 56 32.328125 56 
Q 43.359375 56 49.78125 48.890625 
Q 56.203125 41.796875 56.203125 29.59375 
z
M 47.21875 32.234375 
Q 47.125 39.59375 43.09375 43.984375 
Q 39.0625 48.390625 32.421875 48.390625 
Q 24.90625 48.390625 20.390625 44.140625 
Q 15.875 39.890625 15.1875 32.171875 
z
" id="DejaVuSans-101"/>
      <path d="M 10.59375 49.21875 
L 10.59375 58.109375 
L 73.1875 35.40625 
L 73.1875 27.296875 
L 10.59375 4.59375 
L 10.59375 13.484375 
L 60.890625 31.296875 
z
" id="DejaVuSans-62"/>
      <path d="M 10.59375 45.40625 
L 73.1875 45.40625 
L 73.1875 37.203125 
L 10.59375 37.203125 
z
M 10.59375 25.484375 
L 73.1875 25.484375 
L 73.1875 17.1875 
L 10.59375 17.1875 
z
" id="DejaVuSans-61"/>
      <path d="M 10.984375 1.515625 
L 10.984375 10.5 
Q 14.703125 8.734375 18.5 7.8125 
Q 22.3125 6.890625 25.984375 6.890625 
Q 35.75 6.890625 40.890625 13.453125 
Q 46.046875 20.015625 46.78125 33.40625 
Q 43.953125 29.203125 39.59375 26.953125 
Q 35.25 24.703125 29.984375 24.703125 
Q 19.046875 24.703125 12.671875 31.3125 
Q 6.296875 37.9375 6.296875 49.421875 
Q 6.296875 60.640625 12.9375 67.421875 
Q 19.578125 74.21875 30.609375 74.21875 
Q 43.265625 74.21875 49.921875 64.515625 
Q 56.59375 54.828125 56.59375 36.375 
Q 56.59375 19.140625 48.40625 8.859375 
Q 40.234375 -1.421875 26.421875 -1.421875 
Q 22.703125 -1.421875 18.890625 -0.6875 
Q 15.09375 0.046875 10.984375 1.515625 
z
M 30.609375 32.421875 
Q 37.25 32.421875 41.125 36.953125 
Q 45.015625 41.5 45.015625 49.421875 
Q 45.015625 57.28125 41.125 61.84375 
Q 37.25 66.40625 30.609375 66.40625 
Q 23.96875 66.40625 20.09375 61.84375 
Q 16.21875 57.28125 16.21875 49.421875 
Q 16.21875 41.5 20.09375 36.953125 
Q 23.96875 32.421875 30.609375 32.421875 
z
" id="DejaVuSans-57"/>
     </defs>
     <use xlink:href="#DejaVuSans-80"/>
     <use x="58.552734" xlink:href="#DejaVuSans-114"/>
     <use x="97.416016" xlink:href="#DejaVuSans-111"/>
     <use x="158.597656" xlink:href="#DejaVuSans-98"/>
     <use x="222.074219" xlink:href="#DejaVuSans-32"/>
     <use x="253.861328" xlink:href="#DejaVuSans-111"/>
     <use x="315.042969" xlink:href="#DejaVuSans-102"/>
     <use x="350.248047" xlink:href="#DejaVuSans-32"/>
     <use x="382.035156" xlink:href="#DejaVuSans-97"/>
     <use x="443.314453" xlink:href="#DejaVuSans-32"/>
     <use x="475.101562" xlink:href="#DejaVuSans-118"/>
     <use x="534.28125" xlink:href="#DejaVuSans-97"/>
     <use x="595.560547" xlink:href="#DejaVuSans-108"/>
     <use x="623.34375" xlink:href="#DejaVuSans-117"/>
     <use x="686.722656" xlink:href="#DejaVuSans-101"/>
     <use x="748.246094" xlink:href="#DejaVuSans-32"/>
     <use x="780.033203" xlink:href="#DejaVuSans-62"/>
     <use x="863.822266" xlink:href="#DejaVuSans-32"/>
     <use x="895.609375" xlink:href="#DejaVuSans-49"/>
     <use x="959.232422" xlink:href="#DejaVuSans-46"/>
     <use x="991.019531" xlink:href="#DejaVuSans-48"/>
     <use x="1054.642578" xlink:href="#DejaVuSans-32"/>
     <use x="1086.429688" xlink:href="#DejaVuSans-61"/>
     <use x="1170.21875" xlink:href="#DejaVuSans-32"/>
     <use x="1202.005859" xlink:href="#DejaVuSans-48"/>
     <use x="1265.628906" xlink:href="#DejaVuSans-46"/>
     <use x="1297.416016" xlink:href="#DejaVuSans-49"/>
     <use x="1361.039062" xlink:href="#DejaVuSans-53"/>
     <use x="1424.662109" xlink:href="#DejaVuSans-57"/>
    </g>
   </g>
  </g>
 </g>
 <defs>
  <clipPath id="pc12f99a244">
   <rect height="217.44" width="334.8" x="36.465625" y="7.2"/>
  </clipPath>
 </defs>
</svg>
